<svg xmlns="http://www.w3.org/2000/svg" viewBox="0 0 252 144" enable-background="new 0 0 252 144"><g fill="#ed1f24"><path d="m32.419 89.2v-.385c0-.823-.553-1.376-1.375-1.376-.835 0-1.375.579-1.375 1.476v1.586h-.85v.85h.85v3.491h.9v-3.491h.9v-.85h-.9v-1.637c0-.173.046-.574.476-.574.118 0 .475 0 .475.584v.326h.899"/><path d="m35.16 92.9h.716v-.216c0-1.104-.665-2.275-1.896-2.275-1.238 0-1.906 1.172-1.906 2.275 0 1.099.668 2.266 1.906 2.266.86 0 1.587-.585 1.851-1.49l.046-.16h-.807l.09-.4m-.205.4l-.041.078c-.173.433-.54.712-.934.712-.597 0-.915-.594-.975-1.189h1.95v.399m-.975-2.03c.409 0 .733.296.886.8h-1.781c.132-.411.421-.8.895-.8"/><path d="m38.22 92.19c-.511-.134-.821-.231-.821-.457 0-.431.43-.495.686-.495.523 0 .662.426.698.608l.02.102h.898l-.011-.135c-.064-.827-.725-1.405-1.605-1.405-.96 0-1.605.532-1.605 1.325 0 .963.865 1.19 1.56 1.373.511.135.821.232.821.457 0 .382-.402.556-.775.556-.371 0-.766-.233-.766-.695v-.125h-.775l-.125.03v.125c0 .866.701 1.495 1.666 1.495 1.014 0 1.695-.557 1.695-1.386-.002-.963-.866-1.191-1.561-1.373"/><path d="m42.592 93.4c0 .579-.144.695-.375.695s-.375-.116-.375-.695v-2.045h1v-.85h-1v-1.951h-.9v1.951h-.8v.85h.8v2.205c0 .854.489 1.386 1.275 1.386s1.275-.531 1.275-1.386v-.285h-.9v.125"/><path d="m44.09 90.51h.9v4.341h-.9z"/><path d="m44.04 88.5h1v1h-1z"/><path d="m47.35 93.41l-.93-2.9h-.98l1.488 4.34h.839l1.483-4.34h-.97z"/><path d="m52.954 93.67v-1.682c0-.963-.638-1.585-1.625-1.585-.96 0-1.605.568-1.605 1.415v.125h.88v-.125c0-.328.296-.585.675-.585.536 0 .775.279.775.905v.104c-.968-.417-2.501.02-2.501 1.267 0 .941.858 1.435 1.706 1.435.415 0 .814-.124 1.118-.345.062.08.134.153.216.219l.034.026h1.156l-.226-.216c-.169-.158-.603-.642-.603-.958m-1.696-.756c.361 0 .642.084.795.237v.724c-.153.154-.434.239-.795.239-.242 0-.805-.059-.805-.604 0-.538.563-.596.805-.596"/><path d="m53.844 87.55h.9v7.302h-.9z"/><path d="m59.85 90.41c-1.237 0-1.905 1.172-1.905 2.275 0 1.099.668 2.266 1.905 2.266 1.231 0 1.896-1.167 1.896-2.266 0-1.103-.664-2.275-1.896-2.275m0 3.671c-.64 0-.975-.702-.975-1.396 0-.698.335-1.405.975-1.405.634 0 .965.707.965 1.405 0 .673-.302 1.396-.965 1.396"/><path d="m64.42 87.44c-.835 0-1.375.579-1.375 1.476v1.586h-.85v.85h.85v3.491h.9v-3.491h.9v-.85h-.9v-1.637c0-.173.046-.574.475-.574.118 0 .475 0 .475.584v.326h.9v-.385c.001-.823-.552-1.376-1.375-1.376"/><path d="m68.1 87.55h.9v7.302h-.9z"/><path d="m71.6 90.41c-1.237 0-1.905 1.172-1.905 2.275 0 1.099.668 2.266 1.905 2.266 1.231 0 1.896-1.167 1.896-2.266 0-1.103-.665-2.275-1.896-2.275m0 3.671c-.64 0-.975-.702-.975-1.396 0-.698.335-1.405.975-1.405.634 0 .965.707.965 1.405 0 .673-.302 1.396-.965 1.396"/><path d="m75.55 93.41l-.92-2.9h-.98l1.48 4.34h.843l1.487-4.34h-.98z"/><path d="m80.75 93.3l.089-.399h.715v-.216c0-1.104-.665-2.275-1.896-2.275-1.238 0-1.906 1.172-1.906 2.275 0 1.099.668 2.266 1.906 2.266.86 0 1.587-.585 1.851-1.49l.046-.16h-.805zm-1.09-2.03c.409 0 .733.296.887.8h-1.781c.13-.411.42-.8.894-.8m.975 2.03l-.042.078c-.173.433-.54.712-.934.712-.597 0-.914-.594-.975-1.189h1.95v.399"/></g><g fill="#ed2224"><path d="m28.873 67.03h4.64l.428 3.489h.131c.79-1.361 1.744-2.348 2.863-2.962 1.119-.614 2.304-.921 3.555-.921.768 0 1.366.061 1.793.181s.872.28 1.333.477l-1.119 4.739c-.505-.153-.96-.269-1.366-.346-.406-.077-.905-.115-1.498-.115-.943 0-1.875.28-2.797.839-.921.559-1.689 1.531-2.303 2.913v8.161h-5.661v-16.455z"/><path d="m45.24 75.25c0-1.338.241-2.545.724-3.621.483-1.075 1.125-1.98 1.926-2.715.801-.735 1.722-1.3 2.764-1.695 1.042-.395 2.111-.592 3.208-.592 1.294 0 2.43.209 3.406.625.976.417 1.793.987 2.452 1.711.658.724 1.152 1.568 1.481 2.534.329.966.494 1.997.494 3.094 0 .504-.028.977-.083 1.414-.055.439-.104.758-.148.955h-10.432c.087.505.263.927.527 1.267.263.341.586.609.971.807.384.197.806.341 1.267.428.46.088.943.132 1.448.132.658 0 1.3-.082 1.925-.247.625-.165 1.3-.411 2.024-.741l1.843 3.357c-.987.637-2.073 1.113-3.258 1.432s-2.293.478-3.324.478c-1.295 0-2.507-.192-3.637-.577-1.13-.383-2.106-.941-2.929-1.678-.823-.734-1.471-1.64-1.942-2.715-.472-1.075-.707-2.294-.707-3.653m11.32-1.976c0-.658-.187-1.217-.56-1.678-.373-.46-1.042-.691-2.01-.691-.702 0-1.333.181-1.892.543-.56.362-.938.971-1.136 1.826h5.595"/><path d="m64.725 75.25c0-1.338.198-2.545.592-3.621.395-1.075.91-1.98 1.547-2.715.636-.735 1.371-1.3 2.205-1.695.833-.395 1.678-.592 2.534-.592.922 0 1.679.148 2.271.444.592.296 1.141.697 1.646 1.201l-.197-2.369v-5.332h5.66v22.905h-4.607l-.395-1.514h-.132c-.571.57-1.234 1.031-1.991 1.382s-1.509.527-2.255.527c-1.053 0-2-.198-2.846-.593-.845-.395-1.563-.965-2.156-1.711s-1.053-1.65-1.382-2.715-.494-2.264-.494-3.602m5.792-.066c0 1.492.225 2.545.675 3.159s1.08.921 1.893.921c.461 0 .872-.082 1.234-.246s.696-.478 1-.938v-6.06c-.329-.307-.675-.516-1.037-.625-.362-.109-.74-.165-1.135-.165-.703 0-1.317.296-1.843.889s-.791 1.612-.791 3.061"/><path d="m93 108h-77v-82h77v82m-72-5h68v-72h-68v72"/><path d="m53.41 52.29c-.209-.116-.395-.229-.412-.25s-.044-.038-.059-.038-.081-.037-.147-.082c-.067-.045-.131-.082-.143-.082-.012 0-.076-.04-.142-.088-.066-.048-.16-.113-.208-.143-.239-.147-.891-.635-1.479-1.106-.298-.238-.803-.717-1.222-1.157-.347-.365-.482-.527-.777-.934-.125-.172-.259-.355-.298-.408-.161-.216-.612-1.058-.612-1.143 0-.014-.03-.094-.066-.177-.091-.205-.191-.558-.263-.925-.015-.075-.04-.204-.057-.286-.039-.192-.041-1.4-.003-1.632.082-.502.414-1.283.717-1.686.252-.336.854-.877 1.146-1.031.095-.05.289-.133.431-.184.729-.263 1.474-.308 2.108-.13.425.119.511.151.749.278.213.113.317.184.653.442.173.133.515.502.623.671.091.144.218.219.243.144.047-.142.592-.682.866-.857.103-.066.217-.143.255-.171.195-.148.755-.384 1.115-.47.497-.119 1.373-.099 1.872.043.243.069.904.375 1.042.482.419.325.902.911 1.125 1.361.145.294.309.738.345.93.086.47.109.752.096 1.169-.016.485-.04.675-.15 1.17-.041.182-.344 1.04-.385 1.089-.021.025-.089.146-.15.268-.129.256-.353.631-.423.711-.026.03-.104.14-.172.245-.137.21-.13.203-.484.626-.283.338-1.152 1.232-1.306 1.342-.106.076-.548.442-.756.626-.068.06-.184.15-.259.201-.075.051-.246.17-.381.266s-.379.262-.544.37-.36.243-.435.3c-.075.058-.167.117-.204.132-.038.015-.154.083-.259.153-.238.145-.48.28-.729.408-.288-.107-.566-.279-.861-.447"/><path d="m32.28 47.868h-4.179v-2.882h4.179v-4.323h2.979v4.323h4.179v2.882h-4.179v4.324h-2.979v-4.324"/><path d="m73.65 47.868h-4.179v-2.882h4.179v-4.323h2.979v4.323h4.179v2.882h-4.179v4.324h-2.979v-4.324"/><path d="m130.34 91.63v.6h-2.4v-.6h2.4m.951-1.551h-.65v-.201c0-.449-.2-.709-.6-.709-.4 0-.602.299-.602.699v5.853h-.649v-5.802c0-.801.45-1.351 1.251-1.351.75 0 1.25.5 1.25 1.251v.26"/><path d="m131.56 93.77v-.581h2.621l-.11.49c0-.8-.4-1.54-1.101-1.54s-1.11.74-1.11 1.54.41 1.53 1.11 1.53c.471 0 .871-.34 1.051-.79h.68c-.229.79-.88 1.4-1.73 1.4-1.1 0-1.78-1.04-1.78-2.141s.681-2.15 1.78-2.15c1.101 0 1.771 1.05 1.771 2.15v.091h-3.182z"/><path d="m135.54 94.45v-.03h.65v.03c0 .5.44.79.891.79s.9-.229.9-.681c0-.8-2.381-.33-2.381-1.83 0-.801.68-1.2 1.48-1.2.8 0 1.42.521 1.48 1.29h-.66c-.07-.359-.32-.71-.82-.71s-.811.22-.811.62c0 .801 2.381.33 2.381 1.83 0 .841-.73 1.261-1.57 1.261s-1.54-.53-1.54-1.37"/><path d="m139.27 92.23v-.6h2.451v.6h-2.451m1.951 2.991c.4 0 .5-.319.5-.82h.65v.16c0 .751-.4 1.261-1.15 1.261s-1.15-.51-1.15-1.261v-4.881h.65v4.72c0 .501.099.821.5.821"/><path d="m143.17 90.38v-.751h.75v.751h-.75m.05 5.342v-4.091h.65v4.091h-.65"/><path d="m146.19 95.32l1.181-3.69h.71l-1.4 4.091h-.66l-1.4-4.091h.71l1.181 3.69h-.322"/><path d="m150.26 95.82c-.8 0-1.58-.46-1.58-1.31 0-.851.78-1.301 1.58-1.301.811 0 1.561.49 1.561 1.301-.001.81-.751 1.31-1.561 1.31m1.571-2.831v1.682c0 .439.64 1.05.64 1.05h-.8c-.14-.11-.29-.28-.37-.55l-.12-.201v-1.83c0-.65-.25-1.03-.9-1.03-.45 0-.8.31-.8.71h-.631c0-.801.631-1.29 1.48-1.29.901-.001 1.501.559 1.501 1.459m-1.571 2.251c.581 0 1.061-.21 1.061-.729 0-.511-.479-.721-1.061-.721-.5 0-.93.21-.93.721 0 .519.43.729.93.729"/><path d="m152.97 95.72v-7.05h.65v7.05h-.65"/><path d="m158.85 95.82c-1.1 0-1.779-1.04-1.779-2.141s.68-2.15 1.779-2.15c1.102 0 1.771 1.05 1.771 2.15s-.67 2.141-1.771 2.141m0-3.671c-.699 0-1.1.73-1.1 1.53s.4 1.521 1.1 1.521c.701 0 1.091-.721 1.091-1.521s-.39-1.53-1.091-1.53"/><path d="m163.72 91.63v.6h-2.4v-.6h2.4m.951-1.551h-.65v-.201c0-.449-.2-.709-.6-.709-.4 0-.601.299-.601.699v5.853h-.65v-5.802c0-.801.45-1.351 1.251-1.351.75 0 1.25.5 1.25 1.251v.26"/><path d="m167.22 95.72v-7.05h.649v7.05h-.649"/><path d="m170.6 95.82c-1.101 0-1.78-1.04-1.78-2.141s.68-2.15 1.78-2.15 1.771 1.05 1.771 2.15-.671 2.141-1.771 2.141m0-3.671c-.7 0-1.101.73-1.101 1.53s.4 1.521 1.101 1.521 1.091-.721 1.091-1.521-.391-1.53-1.091-1.53"/><path d="m174.4 95.32l1.18-3.69h.71l-1.4 4.091h-.66l-1.4-4.091h.71l1.181 3.69h-.321"/><path d="m177.25 93.77v-.581h2.621l-.109.49c0-.8-.4-1.54-1.102-1.54-.699 0-1.109.74-1.109 1.54s.41 1.53 1.109 1.53c.471 0 .871-.34 1.051-.79h.68c-.229.79-.88 1.4-1.73 1.4-1.1 0-1.78-1.04-1.78-2.141s.681-2.15 1.78-2.15c1.102 0 1.771 1.05 1.771 2.15v.091h-3.182z"/><path d="m127.87 68.03h4.641l.428 3.489h.131c.79-1.361 1.744-2.348 2.863-2.962 1.119-.614 2.305-.921 3.555-.921.768 0 1.365.061 1.793.181s.873.28 1.334.477l-1.119 4.739c-.506-.153-.961-.269-1.366-.346-.406-.077-.905-.115-1.497-.115-.943 0-1.876.28-2.798.839-.921.56-1.689 1.531-2.304 2.913v8.161h-5.66v-16.455"/><path d="m144.24 76.25c0-1.338.242-2.545.725-3.621.482-1.075 1.124-1.98 1.926-2.715.801-.735 1.721-1.3 2.764-1.695 1.042-.395 2.111-.592 3.209-.592 1.294 0 2.43.209 3.406.625.976.417 1.793.987 2.451 1.711.658.724 1.152 1.568 1.481 2.534s.493 1.997.493 3.094c0 .504-.027.977-.082 1.414-.055.439-.104.758-.148.955h-10.432c.087.505.263.927.526 1.267.263.341.587.609.971.807s.806.341 1.267.428c.461.088.943.132 1.448.132.658 0 1.3-.082 1.925-.247.626-.165 1.301-.411 2.024-.741l1.843 3.357c-.986.637-2.073 1.113-3.258 1.432s-2.293.478-3.324.478c-1.295 0-2.507-.192-3.637-.577-1.129-.383-2.105-.941-2.928-1.678-.823-.734-1.471-1.64-1.942-2.715-.471-1.075-.708-2.294-.708-3.653m11.321-1.976c0-.657-.187-1.218-.56-1.678s-1.042-.691-2.01-.691c-.701 0-1.332.181-1.892.543-.56.362-.938.971-1.136 1.826h5.596"/><path d="m163.72 76.25c0-1.338.197-2.545.592-3.621.396-1.075.91-1.98 1.547-2.715.637-.735 1.371-1.3 2.205-1.695.834-.395 1.679-.592 2.534-.592.922 0 1.679.148 2.271.444.593.296 1.141.697 1.646 1.201l-.197-2.369v-5.332h5.66v22.905h-4.607l-.395-1.514h-.133c-.57.57-1.233 1.031-1.99 1.382s-1.509.527-2.255.527c-1.053 0-2-.198-2.847-.593-.844-.395-1.562-.965-2.155-1.711s-1.054-1.65-1.382-2.715c-.33-1.063-.494-2.264-.494-3.602m5.792-.066c0 1.492.226 2.545.675 3.159s1.08.921 1.893.921c.461 0 .872-.082 1.234-.246.361-.164.695-.478 1-.938v-6.06c-.33-.307-.676-.516-1.037-.625-.362-.109-.74-.165-1.135-.165-.703 0-1.317.296-1.844.889-.527.592-.79 1.612-.79 3.061"/><path d="m192 107h-77v-82h77v82m-72-5h68v-72h-68v72"/><path d="m166.52 54.775c-.325-.18-.614-.356-.642-.389-.027-.032-.067-.059-.091-.059-.022 0-.126-.057-.229-.127-.104-.07-.203-.128-.222-.128-.02 0-.119-.062-.222-.138-.102-.075-.248-.176-.322-.222-.373-.23-1.39-.99-2.306-1.724-.464-.371-1.252-1.118-1.903-1.803-.541-.568-.752-.821-1.211-1.454-.195-.268-.403-.554-.464-.636-.251-.336-.954-1.648-.954-1.78 0-.022-.045-.146-.104-.275-.141-.319-.297-.87-.408-1.441-.023-.118-.063-.317-.087-.445-.062-.3-.064-2.181-.007-2.543.128-.782.646-1.999 1.116-2.626.394-.523 1.33-1.367 1.787-1.606.146-.079.45-.208.671-.287 1.137-.409 2.296-.48 3.284-.202.662.186.798.235 1.166.433.331.177.495.287 1.019.689.269.207.802.782.969 1.046.143.224.341.341.38.224.072-.221.923-1.062 1.348-1.335.16-.103.338-.223.397-.267.305-.23 1.176-.598 1.737-.732.774-.186 2.139-.153 2.917.067.379.107 1.409.583 1.623.751.653.507 1.406 1.419 1.751 2.121.227.458.483 1.149.539 1.449.134.732.171 1.171.148 1.822-.023.755-.062 1.051-.233 1.823-.064.283-.535 1.62-.6 1.697-.033.04-.14.228-.233.417-.202.399-.551.984-.66 1.108-.041.046-.162.218-.269.381-.213.328-.203.315-.754.975-.438.526-1.794 1.919-2.034 2.091-.164.119-.853.689-1.177.976-.106.093-.287.233-.403.312-.117.08-.384.266-.594.415-.21.149-.592.409-.848.577s-.561.378-.678.468c-.116.089-.26.182-.317.205-.06.023-.24.13-.404.238-.371.227-.748.437-1.135.636-.449-.171-.883-.439-1.341-.702"/><path d="m133.61 47.888h-6.512v-4.491h6.512v-6.735h4.641v6.735h6.51v4.491h-6.51v6.736h-4.641v-6.736"/><path d="m208.65 82.7v.341h-1.363v-.341h1.363m.539-.88h-.369v-.114c0-.256-.113-.403-.34-.403-.229 0-.342.171-.342.397v3.324h-.369v-3.296c0-.454.256-.767.711-.767.426 0 .709.284.709.71v.149"/><path d="m209.34 83.918v-.329h1.488l-.062.278c0-.454-.228-.875-.625-.875-.398 0-.631.421-.631.875s.232.869.631.869c.268 0 .494-.193.596-.449h.387c-.131.449-.5.796-.982.796-.625 0-1.012-.591-1.012-1.216s.387-1.222 1.012-1.222 1.01.597 1.01 1.222v.051h-1.808"/><path d="m211.6 84.31v-.018h.369v.018c0 .284.25.449.506.449.255 0 .511-.131.511-.387 0-.455-1.352-.188-1.352-1.04 0-.454.387-.682.841-.682s.807.296.841.733h-.375c-.04-.205-.182-.403-.466-.403s-.46.125-.46.352c0 .455 1.352.188 1.352 1.04 0 .478-.414.716-.892.716s-.875-.301-.875-.778"/><path d="m213.72 83.04v-.341h1.392v.341h-1.392m1.108 1.699c.227 0 .283-.182.283-.466h.369v.091c0 .426-.227.716-.652.716-.427 0-.654-.29-.654-.716v-2.772h.369v2.682c0 .284.057.465.285.465"/><path d="m215.93 81.992v-.426h.426v.426h-.426m.027 3.034v-2.324h.37v2.324h-.37"/><path d="m217.65 84.8l.671-2.097h.403l-.795 2.324h-.375l-.796-2.324h.403l.67 2.097h-.181"/><path d="m219.96 85.08c-.455 0-.898-.262-.898-.744 0-.483.443-.738.898-.738.46 0 .887.278.887.738s-.427.744-.887.744m.893-1.607v.954c0 .25.363.597.363.597h-.455c-.079-.062-.164-.159-.21-.312l-.068-.114v-1.039c0-.369-.142-.585-.511-.585-.256 0-.455.176-.455.403h-.357c0-.455.357-.733.84-.733.511-.001.853.317.853.829m-.893 1.278c.33 0 .602-.12.602-.415 0-.29-.271-.409-.602-.409-.284 0-.528.119-.528.409 0 .295.244.415.528.415"/><path d="m221.5 85.03v-4.01h.369v4.01h-.369"/><path d="m224.84 85.08c-.625 0-1.01-.591-1.01-1.216s.386-1.222 1.01-1.222 1 .597 1 1.222-.38 1.216-1 1.216m0-2.085c-.397 0-.625.415-.625.869s.228.863.625.863.619-.409.619-.863-.222-.869-.619-.869"/><path d="m227.61 82.7v.341h-1.363v-.341h1.363m.539-.88h-.369v-.114c0-.256-.113-.403-.34-.403-.229 0-.342.171-.342.397v3.324h-.369v-3.296c0-.454.256-.767.711-.767.426 0 .709.284.709.71v.149"/><path d="m229.6 85.03v-4.01h.369v4.01h-.369"/><path d="m231.52 85.08c-.625 0-1.012-.591-1.012-1.216s.387-1.222 1.012-1.222 1.01.597 1.01 1.222-.381 1.216-1.01 1.216m0-2.085c-.397 0-.625.415-.625.869s.228.863.625.863c.398 0 .619-.409.619-.863s-.221-.869-.619-.869"/><path d="m233.67 84.8l.671-2.097h.402l-.795 2.324h-.375l-.795-2.324h.402l.671 2.097h-.181"/><path d="m235.29 83.918v-.329h1.489l-.062.278c0-.454-.228-.875-.625-.875s-.631.421-.631.875.233.869.631.869c.267 0 .494-.193.597-.449h.386c-.13.449-.499.796-.982.796-.625 0-1.012-.591-1.012-1.216s.387-1.222 1.012-1.222 1 .597 1 1.222v.051h-1.808"/><path d="m207.25 69.3h2.637l.242 1.981h.074c.449-.772.991-1.333 1.627-1.683.635-.349 1.309-.522 2.02-.522.437 0 .776.034 1.019.103.243.068.496.158.758.271l-.637 2.692c-.286-.088-.545-.153-.775-.196-.23-.044-.514-.065-.85-.065-.537 0-1.066.158-1.59.477-.523.317-.959.869-1.308 1.654v4.635h-3.216v-9.347"/><path d="m216.54 73.969c0-.76.138-1.445.411-2.056.274-.61.639-1.125 1.094-1.542.455-.418.979-.738 1.57-.963s1.199-.336 1.822-.336c.734 0 1.38.118 1.935.354.554.237 1.019.561 1.393.972.374.412.653.892.841 1.439.188.549.281 1.135.281 1.757 0 .287-.017.555-.047.804-.031.25-.061.431-.085.542h-5.925c.049.287.149.527.299.72.149.193.334.347.551.458.219.112.459.193.721.243s.535.075.822.075c.373 0 .738-.047 1.094-.141.354-.094.738-.233 1.148-.42l1.047 1.906c-.561.361-1.178.633-1.85.813-.674.18-1.303.271-1.889.271-.734 0-1.424-.109-2.064-.327-.643-.218-1.197-.535-1.664-.953-.467-.417-.835-.932-1.104-1.542-.267-.609-.401-1.301-.401-2.074m6.431-1.121c0-.374-.106-.691-.318-.953s-.592-.393-1.141-.393c-.398 0-.756.103-1.074.309-.318.205-.533.551-.645 1.037h3.178"/><path d="m227.61 73.969c0-.76.111-1.445.336-2.056s.518-1.125.879-1.542c.361-.418.778-.738 1.252-.963s.953-.336 1.439-.336c.523 0 .953.084 1.289.252.338.168.648.396.936.683l-.112-1.346v-3.03h3.215v13.01h-2.616l-.225-.859h-.075c-.324.324-.7.586-1.13.785-.431.199-.857.299-1.281.299-.598 0-1.137-.112-1.617-.337-.479-.224-.887-.548-1.224-.972-.337-.423-.599-.938-.785-1.542s-.281-1.287-.281-2.047m3.289-.037c0 .848.128 1.445.384 1.794.255.35.613.523 1.075.523.262 0 .494-.047.7-.14.206-.094.396-.271.57-.533v-3.438c-.187-.175-.384-.293-.589-.355s-.42-.094-.645-.094c-.398 0-.748.168-1.047.505-.297.335-.448.915-.448 1.738"/><path d="m244 92h-44v-64h44v64m-41-3h38v-58h-38v58"/><path d="m220.13 62.831c-.479-.266-.902-.522-.943-.57-.039-.049-.1-.088-.133-.088s-.186-.084-.338-.187c-.152-.104-.299-.187-.326-.187s-.173-.091-.323-.202c-.151-.111-.364-.258-.476-.326-.545-.338-2.037-1.453-3.381-2.53-.681-.544-1.837-1.64-2.793-2.646-.793-.834-1.103-1.205-1.776-2.134-.286-.393-.593-.812-.683-.933-.367-.494-1.397-2.419-1.397-2.612 0-.032-.069-.214-.153-.403-.206-.468-.436-1.276-.6-2.115-.033-.172-.092-.466-.129-.653-.089-.44-.094-3.2-.008-3.732.187-1.147.945-2.932 1.639-3.853.577-.769 1.952-2.01 2.619-2.358.217-.114.661-.305.986-.421 1.666-.6 3.368-.704 4.82-.297.971.272 1.168.346 1.711.635.487.26.725.422 1.492 1.012.396.305 1.178 1.148 1.424 1.535.209.329.498.501.555.329.109-.324 1.355-1.559 1.979-1.959.235-.15.497-.326.583-.392.447-.338 1.727.356 2.55.16 1.136-.271 3.14-1.46 4.28-1.137.557.158 2.066.856 2.383 1.103.957.743 2.062 2.083 2.57 3.112.332.673-4.604-1.096-3.657 3.139.085.462 1.325-1.365 2.298-1.216 1.29.196 2.385 2.334 2.367 2.878-.036 1.109-.092 1.542-.344 2.675-.093.415-.787 2.377-.881 2.491-.048.058-.203.333-.344.611-.294.585-.805 1.444-.965 1.625-.062.068-.274-6.781-1.867-3.086-1.751 4.066-.628-3.477-1.436-2.509-.293.351.248 7.365-.045 8.513-.455 1.777-1.328-2.93-1.352-2.567-.16 2.395.38 4.589.213 4.708-.242.175-2.487 2.246-2.963 2.666-.154.137-.42-3.359-.591-3.244-.171.116-.563 2.858-.87 3.077-.309.219.365.6-.01.846-.377.248-.824.557-.996.688-.17.132-.38.268-.466.301-.086.034-.353.191-.592.349-.544.333-1.099.642-1.665.935-.657-.253-1.292-.647-1.966-1.031"/></g></svg>